<svg xmlns="http://www.w3.org/2000/svg" viewBox="0 0 645.14 250"><defs><style>.cls-1{fill:#030202;}.cls-2{fill:#fff;}.cls-3{fill:#5579b7;}.cls-4{fill:#e34639;}.cls-5{fill:#38a854;}.cls-6{fill:#f8bc1a;}.cls-7{fill:#fefefe;}.cls-8{fill:#fdfdfd;}.cls-9{fill:#fdfefd;}.cls-10{fill:#f0f0f0;}.cls-11{fill:#f7f7f7;}.cls-12{fill:#060404;}.cls-13{fill:#090707;}.cls-14{fill:#0d0c0b;}.cls-15{fill:#060505;}.cls-16{fill:#151412;}.cls-17{fill:#050404;}.cls-18{fill:#060504;}</style></defs><g id="Layer_2" data-name="Layer 2"><g id="Capa_1" data-name="Capa 1"><path class="cls-1" d="M.56.09q320,0,640-.09c3.74,0,4.59.84,4.58,4.59q-.18,120.66,0,241.32c0,3.42-.67,4.09-4.08,4.09q-320.25-.15-640.5-.09C-.32,248.35.1,246.64.1,245q0-120,0-240C.1,3.35-.32,1.65.56.09Z"/><path class="cls-2" d="M322.71,41.45q128.18,0,256.35,0c6.49,0,12.58,1,17.54,5.62a19.82,19.82,0,0,1,6.71,15q0,62.94,0,125.88c0,10.49-7.34,18.62-17.77,20.15a47.44,47.44,0,0,1-7,.44q-255.84,0-511.7,0c-5.37,0-10.64-.34-15.29-3.47-6.6-4.46-9.69-10.8-9.69-18.65,0-41-.13-81.92,0-122.88C42,49.69,51,41.48,65.37,41.47q51.12-.07,102.24,0Z"/><path class="cls-1" d="M322.78,45.07c85.13,0,170.25.17,255.37-.17,15.32-.06,22.25,9.12,22.09,22.31-.46,39-.16,77.93-.16,116.9,0,13.91-6.86,20.82-20.75,20.82H66.1c-13.85,0-20.57-6.7-20.57-20.39V65.64c0-13.82,6.66-20.57,20.39-20.57Z"/><path class="cls-3" d="M84.23,169.71c-1.3-1.2-.84-2.79-.84-4.22q0-40.28,0-80.55c0-1.44-.43-3,.72-4.28,2.18-.42,3.34,1.19,4.59,2.44q18.85,18.78,37.6,37.65c1.17,1.17,2.39,2.34,2.59,4.13-.12,2.22-1.75,3.52-3.13,4.91q-18.49,18.59-37,37.09C87.46,168.14,86.35,169.75,84.23,169.71Z"/><path class="cls-4" d="M84.23,169.71l44.21-44.49a1,1,0,0,1,1.2-.43c7.51,6,13.79,13.35,20.61,20.1.81.8,1.52,1.8,1,3.11-16.73,9.73-33.36,19.66-50.26,29.1C93.82,181.1,86.84,177.62,84.23,169.71Z"/><path class="cls-5" d="M129.21,125.24l-.38,0h-.39L84.11,80.66c2.54-8.33,9.94-11.8,17.48-7.53,16.73,9.48,33.25,19.34,49.85,29.05.23,1.5-.68,2.5-1.6,3.43-6.1,6.23-12.23,12.42-18.48,18.49A4.1,4.1,0,0,1,129.21,125.24Z"/><path class="cls-6" d="M129.21,125.24l22.23-23.06c7.44,4.27,15.05,8.27,22.28,12.87,7.55,4.81,7.72,15.24.28,20s-15.16,8.69-22.77,13Z"/><path class="cls-2" d="M253.62,137.55c2.49,0,5.06.38,7.47-.07,5.06-.95,5.41,2,5.27,5.68-.55,14.15-9.92,23.94-23.61,24.63-14.43.73-27.72-9.31-29.65-22.63-1.75-12,2.27-21.72,12.61-28.15,9.82-6.1,20-6.15,29.91.2,1.27.82,4.73,1.33,2.63,4-1.52,2-2.91,5.35-7,2.44-6.52-4.7-13.72-4.68-20.57-.6s-10,10.41-9.66,18.39a19.85,19.85,0,0,0,12.78,17.44c7.71,2.73,15.84.79,21-4.94a15.31,15.31,0,0,0,2.72-4.69c1-2.6.8-4.08-2.57-3.91-3.81.19-7.65-.12-11.46.09-3.65.2-2.81-2.27-2.95-4.31-.17-2.29.17-3.84,3.1-3.65C247,137.72,250.3,137.56,253.62,137.55Z"/><path class="cls-2" d="M372.42,164.51c-6.49,4.65-12.94,4.42-19.17-.29s-8.08-11.27-6.37-18.58c1.64-7,6.31-11.46,13.42-13.11a7.59,7.59,0,0,1,3.41-.31c4.67,1.2,9.23,2.75,14.16,1,1.74-.61,2.71.49,2.64,2.47-.4,11.44.92,22.93-.71,34.32-1.11,7.73-5.18,11.76-12.64,13.35a16.56,16.56,0,0,1-17.7-7.12c-.59-.94-3-2.46-.62-3.45,2-.83,4.19-4,6.69-.85,1.36,1.73,2.75,3.29,4.88,4C366.93,178.15,374.26,173.55,372.42,164.51Z"/><path class="cls-2" d="M446.51,140.55c0-7.49.13-15-.06-22.46-.07-2.84.73-3.72,3.59-3.59,5.14.24,10.3,0,15.44.1,10,.28,17,7.12,16.95,16.36s-7.37,15.91-17.3,16c-10.55.13-10.55.13-10.55,10.49,0,1.49,0,3,0,4.49,0,4.52-2.54,6.25-6.77,4.83-1.94-.66-1.25-2.12-1.26-3.28C446.48,155.86,446.51,148.2,446.51,140.55Z"/><path class="cls-2" d="M521.89,146.7c-2.64-7.4-9-9.53-13.86-5.32-3.46,3-5.86.19-7.56-1.18-1.51-1.22,1-3.27,2.43-4.44,5.61-4.53,11.9-4.83,18.23-2.12,6,2.57,8.42,7.56,8.22,14-.16,5.15,0,10.31-.08,15.46,0,1.27,1,3.4-1.37,3.56-2,.13-5.23,1.18-6-.71-1.28-3.35-2.12-.92-3.15-.3a13.89,13.89,0,0,1-17.31-2.11,10.33,10.33,0,0,1-1.05-13.26c3.68-5.08,9.12-6.26,15-5.81A11.09,11.09,0,0,1,521.89,146.7Z"/><path class="cls-2" d="M268.85,149.85a17.5,17.5,0,0,1,18.07-17.68,17.82,17.82,0,1,1-.26,35.63A17.45,17.45,0,0,1,268.85,149.85Z"/><path class="cls-2" d="M414.2,167.85c-6.68-.34-12.37-3.31-15.57-10.26-2.93-6.35-1.73-15.1,2.95-20S412.15,131,418.81,133a13.5,13.5,0,0,1,5.47,3.31c6.78,6.47,6.34,9.13-2.09,12.58-4.59,1.87-9.14,3.85-13.77,5.61-2.13.8-2,1.61-.68,3.11A9.08,9.08,0,0,0,421,158c3.48-3.61,5.52-.48,7.25,1.17,2.33,2.21-1,3.3-2.08,4.35C423.12,166.49,419.18,167.75,414.2,167.85Z"/><path class="cls-2" d="M307.75,150.14c0-10.4,7.51-18,17.75-18a17.82,17.82,0,0,1-.21,35.63C315.19,167.72,307.77,160.25,307.75,150.14Z"/><path class="cls-2" d="M547.62,155.65c2.14-5.55,4-10.33,5.85-15.1,3-7.64,3-7.64,11.71-7.19-2.76,6.47-5.44,12.8-8.17,19.1q-5.82,13.42-11.71,26.81c-1.15,2.62-6,4.32-8.24,3a1.21,1.21,0,0,1-.67-1.6,9.13,9.13,0,0,1,1-2.25c6.94-9.49,5.49-18.79-.21-28.28a80.08,80.08,0,0,1-5.47-12.2c-.55-1.41-2.73-4-.57-4.43,2.48-.55,6.35-2.34,8.1,2.05,2.27,5.67,4.63,11.31,7,17C546.5,153.28,546.86,154,547.62,155.65Z"/><path class="cls-7" d="M393.47,140.68c0,7.48-.17,15,.08,22.43.11,3.3-1.23,3.76-4.07,3.79s-4-.52-4-3.78q.27-22.43,0-44.86c0-3.22,1-3.86,3.94-3.79,2.77.07,4.25.4,4.13,3.78C393.3,125.72,393.47,133.2,393.47,140.68Z"/><path class="cls-2" d="M494.49,140.48c0,7.65-.21,15.31.09,23,.15,3.78-2,3.32-4.34,3.41s-3.94,0-3.9-3.31q.27-23,0-45.9c-.05-3.62,1.94-3.09,4.06-3s4.31-.77,4.18,3C494.3,125.17,494.49,132.83,494.49,140.48Z"/><path class="cls-8" d="M371.78,87.42c0-4.25-.07-8.51,0-12.76,0-1.59-1-4,2.13-4,2.86,0,1.72,2.37,1.74,3.73q.19,9,0,18c0,1.25,1.08,3.17-1.17,3.73s-3.35-.74-4.37-2.43A131.45,131.45,0,0,0,359.68,78.3c0,5,0,10,0,15.07,0,1.23.45,2.69-1.73,2.78-2.4.11-2.15-1.38-2.14-2.9,0-6.32-.06-12.64.06-19,0-1.25-1.05-3.2,1.3-3.64a4,4,0,0,1,4.59,2.1c3,5,6.07,9.85,9.12,14.76Z"/><path class="cls-9" d="M338.66,96.15c-7.84-.05-12.91-5.19-12.82-13,.09-7.51,5.51-12.43,13.56-12.29,7.43.12,12.92,5.6,12.83,12.8C352.13,91.16,346.65,96.2,338.66,96.15Z"/><path class="cls-7" d="M236.09,86.12c-2.63,0-4.76,0-6.89,0-1.35,0-2.26-.21-2.14-1.89.09-1.29.77-1.67,1.92-1.66,3,0,6,0,9,0,1.85,0,2,1.18,2,2.67.13,3.88-1.77,6.65-4.69,8.81-5,3.73-13.7,2.64-18.11-2.18a12.48,12.48,0,0,1-.38-16.32c4.19-4.94,12.88-6.41,18-2.9.76.53,2.93.86,1.34,2.79-1.1,1.34-2,1.51-3.69.58-5.18-2.75-10.12-1.72-12.77,2.23a8.89,8.89,0,0,0,2.72,12.92C227.51,94.2,233.2,92.36,236.09,86.12Z"/><path class="cls-7" d="M243.07,83.3c0-.67,0-1.33,0-2,.24-3.45-1.49-8.88.63-9.93,3.49-1.72,8.35-.67,12.63-.75,1.3,0,2.28.4,2.18,2-.08,1.39-1,1.49-2.08,1.5-1.66,0-3.32,0-5,0-2.46,0-4.7-.64-4.69,3.53s1.95,4.2,4.85,3.94a14.79,14.79,0,0,1,2.49,0c1.37.1,3.3-.53,3.23,1.89s-2.12,1.43-3.38,1.6a12.68,12.68,0,0,1-3.48,0c-2.8-.38-3.65.69-3.64,3.54s.48,4.44,3.78,4a37,37,0,0,1,5.47,0c1.21,0,2.35.14,2.43,1.77s-1.14,1.71-2.32,1.75h-.5C243.07,97.05,243.07,97.05,243.07,83.3Z"/><path class="cls-10" d="M268.28,85.18c0-2-.16-4,0-6,.34-3.52-.29-5.88-4.64-5.08-1.09.19-2.43.16-2.35-1.66.07-1.52,1-1.94,2.3-1.94,4.31,0,8.62,0,12.93,0,1.34,0,2.74-.14,2.84,1.84.1,2.18-1.53,1.94-2.73,1.76-3.88-.61-4.27,1.48-4.14,4.6.21,4.81.05,9.63.06,14.44,0,1.53.14,3-2.17,3s-2.13-1.52-2.13-3Z"/><path class="cls-10" d="M305.19,85.24c0-2-.14-4,0-6,.29-3.42-.12-6-4.59-5.14-1,.2-2.45.26-2.4-1.59,0-1.5.88-2,2.24-2,4.48,0,8.95,0,13.43,0,1.29,0,2.28.21,2.4,1.79s-.93,2.06-2.17,1.83c-4.89-.91-4.82,2.09-4.68,5.53.17,4.48,0,9,0,13.45,0,1.48.24,3-2.1,3.06s-2.21-1.42-2.2-3C305.2,90.55,305.19,87.89,305.19,85.24Z"/><path class="cls-11" d="M294.85,83.32c0,3.47,0,7,0,10.42,0,1.11.28,2.37-1.56,2.41-1.64,0-2.38-.49-2.36-2.24.06-7,.05-13.9,0-20.84,0-1.6.49-2.49,2.22-2.48,2.16,0,1.66,1.6,1.68,2.81C294.88,76.7,294.85,80,294.85,83.32Z"/><path class="cls-12" d="M373.25,150.16c0,5.74-4.06,10.44-9.05,10.56-5.39.13-10.12-5-10-10.83s4.44-10.43,9.78-10.46S373.29,144,373.25,150.16Z"/><path class="cls-13" d="M454.58,130.29c.55-2.42-1.4-7.21.92-7.8,4.42-1.12,9.57-1.62,14.08.52a8,8,0,0,1,4.78,9,8.23,8.23,0,0,1-7.05,7.3,23.63,23.63,0,0,1-3.95.28C454.58,139.65,454.58,139.64,454.58,130.29Z"/><path class="cls-14" d="M515,150.94c2.4.27,5.68-.54,6.24,2.86.51,3-4.67,6.84-8.59,6.71-3-.1-6.29-.81-6-4.41C507.09,151.47,511.09,151,515,150.94Z"/><path class="cls-15" d="M276.91,150.22c-.08-6.15,4.17-10.82,9.8-10.79,5.37,0,9.8,4.66,9.93,10.36s-4.61,10.87-10,10.9C281.39,160.73,277,156,276.91,150.22Z"/><path class="cls-16" d="M404.84,149.36c.6-5.38,2.89-8.4,7.26-9.81,3.5-1.14,6,.43,8.58,3.12Z"/><path class="cls-17" d="M315.65,149.82c.06-5.87,4.24-10.35,9.68-10.39s10.11,4.93,10,10.77c-.13,5.57-4.73,10.5-9.85,10.56C320.15,160.82,315.59,155.73,315.65,149.82Z"/><path class="cls-18" d="M347.85,83.39c0,5.54-3.37,9.1-8.83,9.18a8.82,8.82,0,0,1-9.29-8.91,8.94,8.94,0,0,1,9-9.24C344,74.3,347.81,78.05,347.85,83.39Z"/></g></g></svg>