<svg xmlns="http://www.w3.org/2000/svg" viewBox="0 0 419.76 383.23"><defs><style>.cls-1{fill:#e6e6e6;}.cls-2{fill:#b2b2b2;}.cls-3{fill:#fefefe;}</style></defs><g id="Layer_2" data-name="Layer 2"><g id="Layer_1-2" data-name="Layer 1"><path class="cls-1" d="M328,264.41c-2.18.36-3.69,2-5.49,3a92.34,92.34,0,0,1-16.73,7.83,90.28,90.28,0,0,1-48.53,2.59,81.53,81.53,0,0,1-16.78-5.68A86.07,86.07,0,0,1,224,262.33a92.5,92.5,0,0,1-18.68-19.17c-.61-.83-1.15-1.71-1.68-2.59a1,1,0,0,0-1.78-.32,2.79,2.79,0,0,1-1.85.65c-3.35,0-6.7,0-10.05,0a2.55,2.55,0,0,1-2.54-1.13,2.48,2.48,0,0,1,2.27-3.71,77.49,77.49,0,0,1,9.27.06c.5,0,1.07.31,1.4-.27s-.21-.85-.41-1.24a106.15,106.15,0,0,1-6.05-13.67,86.67,86.67,0,0,1-4.55-21.85,80.89,80.89,0,0,1,.46-18.46,93.37,93.37,0,0,1,4.17-17.53,87.17,87.17,0,0,1,17.61-29.84,85.46,85.46,0,0,1,20.36-16.64c1.37-.81,2.72-1.68,4.13-2.43,1.26-.67,1.16-1.35.26-2.25q-4.53-4.53-9-9.08L215.64,91.1c-.4-.4-.86-.73-1.27-1.12-1.57-1.51-1.56-1.51-3.06,0q-17.53,17.55-35.09,35.08c-.84.84-1.79,1.55-2.65,2.36-1.07,1-2,.55-2.84-.26a1.67,1.67,0,0,1-.09-2.6c1.06-1.18,2.21-2.29,3.35-3.41,3.87-3.84,7.78-7.64,11.63-11.49,4.3-4.29,8.53-8.63,12.82-12.93,3.08-3.09,6.21-6.15,9.32-9.22a7,7,0,0,1,.55-.54c1.21-1,1.23-2.06,0-3.17-2.77-2.54-5.35-5.27-8-7.94-3.9-4-7.89-7.82-11.82-11.74q-6.67-6.64-13.3-13.31c-1.53-1.53-3-3.1-4.51-4.66-.78-.82-1.06-1.75-.09-2.55s1.85-1.22,3-.21c2.38,2.06,4.58,4.3,6.8,6.52Q196.25,65.71,212,81.52c.67.68,1,.68,1.72,0,5.43-5.47,10.92-10.89,16.37-16.34,4.29-4.29,8.54-8.62,12.82-12.93,2.82-2.85,5.64-5.7,8.49-8.52,1.07-1.05,2.37-1.16,3.16-.27a2,2,0,0,1,0,3c-.52.57-1,1.19-1.52,1.74L218.53,82.76c-2.62,2.61-2.62,2.6,0,5.24q11,11,22,22a2.39,2.39,0,0,0,3.16.65,88,88,0,0,1,22-5.82,90,90,0,0,1,17-.52A81.92,81.92,0,0,1,306.2,109a88,88,0,0,1,37,25.07,91.12,91.12,0,0,1,14.24,22.3,86.89,86.89,0,0,1,6.59,22.26,76.1,76.1,0,0,1,1,15.08,91.82,91.82,0,0,1-6.39,31.14,90.37,90.37,0,0,1-5.47,11.39,86.94,86.94,0,0,1-11.54,15.6c-.86.92-2,1.64-2.26,3a3,3,0,0,0-2.23,1.18,78.8,78.8,0,0,1-7.44,6.34C329,262.91,328.13,263.34,328,264.41ZM346.24,192a48.16,48.16,0,0,0-.47-9.87A74.43,74.43,0,0,0,342.08,168a68.13,68.13,0,0,0-20.31-29,69,69,0,0,0-21-12.15,68,68,0,0,0-28.52-4,63.43,63.43,0,0,0-10.38,1.46,79.57,79.57,0,0,0-12.71,4.22,67.58,67.58,0,0,0-19.4,12.69,69,69,0,0,0-13,16.38,67.3,67.3,0,0,0-7.71,20.25,69.76,69.76,0,0,0,34.43,75.08,66.7,66.7,0,0,0,15.42,6.25,72.14,72.14,0,0,0,39.55-1,68.27,68.27,0,0,0,25.6-15A66.85,66.85,0,0,0,341.42,218C344.58,209.69,346.62,201.25,346.24,192Zm-70.18-82.85a134.08,134.08,0,0,0-16.31,2,86.45,86.45,0,0,0-23.55,9,79.33,79.33,0,0,0-18.85,14.6,37.42,37.42,0,0,0-5.24,6.26c-.5.82-.72,1.85.22,2.49A1.88,1.88,0,0,0,215,143c1.05-1.19,2.14-2.36,3.17-3.58,6.61-7.85,14.88-13.57,23.89-18.23a77.85,77.85,0,0,1,19.43-6.51,83.1,83.1,0,0,1,18.89-1.49,69.63,69.63,0,0,1,16,2.27,91.35,91.35,0,0,1,9.57,3c1,.38,2.17.73,2.8-.63.51-1.11,0-2.07-1.54-2.71-1.32-.55-2.7-1-4.06-1.45C294.57,110.64,285.73,109.47,276.06,109.19Zm-75.91,52.86c.14.77.31,1.55,1.23,1.75a1.82,1.82,0,0,0,2.14-1.11c1.91-4.09,3.94-8.11,6-12.1a1.73,1.73,0,0,0-.95-2.64,1.84,1.84,0,0,0-2.29,1.09c-1.49,2.74-3.12,5.42-4.39,8.26A16.38,16.38,0,0,0,200.15,162.05Z"/><path class="cls-2" d="M351.84,268.75c.93-.79,1.83-1.62,2.8-2.36,2.38-1.83,4.74-1.74,7.07.23a24.08,24.08,0,0,0,3.32,3.74c1.84,2.54,4,4.85,6,7.25q10,11.94,20,23.89l17.4,20.67c2,2.37,4,4.69,5.88,7.15a12.09,12.09,0,0,1-1.12,15.45,91.81,91.81,0,0,1-9.32,7.86c-4.67,3.59-12.2,2.6-16-1.89q-13.12-15.58-26.22-31.2-12.4-14.78-24.83-29.54c-2.52-3-2.71-6.28-.4-8.38,1.1-1,2.26-1.95,3.39-2.92C344,275.59,347.83,272.06,351.84,268.75Zm50.59,57.31a3,3,0,0,0-.95-2.25L385.21,305q-12.46-14.41-24.94-28.84c-1.19-1.38-2.68-1.66-3.77-.77s-1.18,2.3.08,3.78q6.57,7.68,13.19,15.32,10.44,12.11,20.89,24.18,3.79,4.37,7.64,8.69a2.1,2.1,0,0,0,2.64.63A2.44,2.44,0,0,0,402.43,326.06Z"/><path class="cls-1" d="M251.92,382.85c-7,0-14.11-.23-21.15,0-12.88.5-25.76.33-38.63.16-10.91-.14-21.82-.4-32.73-.59q-11.19-.2-22.37-.63c-6.68-.26-13.36-.55-20-.92-9.13-.5-18.27-1.05-27.34-2.34-2.9-.41-5.84-.55-8.55-1.81-.5-.23-1.19-.35-1.15-1.07s.71-.78,1.25-.95a61,61,0,0,1,12.14-2.09c5.17-.53,10.34-1,15.51-1.47,2.87-.25,5.75-.1,8.64-.36,8-.73,16-.48,24-1.24a14.81,14.81,0,0,1,2,0c7,.22,14-.19,21-.41,5.46-.17,10.92,0,16.37-.23,17.88-.66,35.75-.25,53.63-.21,6,0,11.94,0,17.91.27,8.33.34,16.68.28,25,.68,7.45.35,14.92.32,22.34,1.08,2.56.26,5.14.2,7.71.37,4.41.29,8.82.58,13.22,1a139.39,139.39,0,0,1,14.54,1.78c1.16.23,2.29.58,3.44.89.5.13,1.08.26,1.14.87s-.61.84-1.1,1.11c-2.22,1.24-4.75,1.33-7.16,1.69-4.32.65-8.68,1.08-13,1.47-3.79.34-7.59.51-11.39.75-7.95.49-15.94.45-23.88,1.21a13.19,13.19,0,0,1-1.54,0c-6.18-.21-12.36.26-18.53.41C259.44,382.41,255.68,382.41,251.92,382.85Z"/><path class="cls-1" d="M351.84,268.75c-4,3.31-7.82,6.84-12,9.95-1.85-2.21-3.69-4.44-5.57-6.63a5.23,5.23,0,0,1-1.34-2,53.27,53.27,0,0,0,11.2-9.38c2.29,2.07,4,4.63,6,6.95C350.61,268.19,351,268.74,351.84,268.75Z"/><path class="cls-1" d="M119.28,63.49c0,1.75,0,3.51,0,5.25,0,1.08-.1,2.3-1.44,2.61A2.57,2.57,0,0,1,114.57,70c-.48-1.08-1.12-.74-1.87-.4-2.29,1-4.59,2.08-6.9,3.06-1.55.66-2.68.28-3.29-1s-.15-2.55,1.36-3.29c3-1.46,6-2.88,9.08-4.23,1-.44,1.51-1,1.4-2.09a22.19,22.19,0,0,1,.32-4.15c.13-1.49.93-2.23,2.26-2.17a2.34,2.34,0,0,1,2.33,2.37C119.31,59.89,119.27,61.69,119.28,63.49Z"/><path class="cls-2" d="M344.14,260.68a53.27,53.27,0,0,1-11.2,9.38c-2-1.57-3.23-3.81-4.92-5.65.11-1.07,1-1.5,1.74-2a78.8,78.8,0,0,0,7.44-6.34,3,3,0,0,1,2.23-1.18A61,61,0,0,1,344.14,260.68Z"/><path class="cls-1" d="M200.87,293.68a2.48,2.48,0,0,1-3.32,2.05,31.16,31.16,0,0,1-4.17-2,3.16,3.16,0,0,0-3.21-.09q-3.88,1.86-7.8,3.67c-1.46.67-3,.31-3.53-.81a2.73,2.73,0,0,1,1.54-3.55l9.19-4.33c.52-.24,1.11-.58,1.62-.32,2.54,1.28,5.56,1.14,8,2.79A3.09,3.09,0,0,1,200.87,293.68Z"/><path class="cls-1" d="M306.37,77V72.48c0-2.35.62-3.16,2.37-3.18s2.26.77,2.27,3.24c0,2.88,0,5.76,0,8.64a2.1,2.1,0,0,0,1.51,2.34,23.09,23.09,0,0,1,3.5,1.62c1.41.8,1.85,2.07,1.28,3.23s-1.73,1.58-3.3.95c-1.19-.47-2.35-1-3.53-1.52-.9-.37-1.66-.81-1.7-1.94a1,1,0,0,0-.63-.83c-1.52-.68-1.81-2-1.76-3.44S306.37,78.5,306.37,77Z"/><path class="cls-1" d="M119.27,41.35c0,1.75,0,3.5,0,5.24s-.89,2.79-2.25,2.78a2.8,2.8,0,0,1-2.65-3q0-4.64,0-9.25a7.1,7.1,0,0,1,.16-1.53c.38-1.59,1.21-2.27,2.54-2.14a2.38,2.38,0,0,1,2.22,2.63c0,1.75,0,3.5,0,5.25Z"/><path class="cls-1" d="M150.44,240.9c-1.65,0-3.3,0-4.95,0a2.94,2.94,0,0,1-2.66-1.28c-1-1.64.1-3.46,2.32-3.59s4.53,0,6.8-.05c1.23,0,2.47,0,3.71,0a2.43,2.43,0,0,1,2.58,2.65c0,1.41-.78,2.16-2.55,2.23s-3.5,0-5.25,0Z"/><path class="cls-1" d="M119.28,86c0,1.7,0,3.4,0,5.1s-.82,2.59-2.19,2.62a2.4,2.4,0,0,1-2.7-2.52c0-3.55,0-7.11.1-10.66A2.32,2.32,0,0,1,116.83,78c1.49,0,2.42,1,2.45,2.74S119.28,84.23,119.28,86Z"/><path class="cls-1" d="M172.63,240.9c-1.69,0-3.39,0-5.09,0a2.52,2.52,0,0,1-2.77-2.63c0-1.32,1.11-2.25,2.79-2.27q5.08-.06,10.17,0c1.74,0,2.76,1,2.76,2.45s-1,2.41-2.77,2.45S174.33,240.9,172.63,240.9Z"/><path class="cls-1" d="M119.27,130.24c0,1.8,0,3.6,0,5.4-.05,1.61-.94,2.55-2.28,2.58a2.41,2.41,0,0,1-2.59-2.48c0-3.74-.28-7.49.24-11.24a2,2,0,0,1,2.27-2,2.27,2.27,0,0,1,2.35,2.17c.07,1.85,0,3.7,0,5.55Z"/><path class="cls-1" d="M119.28,108.25c0,1.7,0,3.4,0,5.1s-.77,2.52-2,2.61a2.34,2.34,0,0,1-2.8-2.38,61.93,61.93,0,0,1,.27-11.55,1.93,1.93,0,0,1,2.14-1.78,2.29,2.29,0,0,1,2.39,2.14c.08,2,0,3.91,0,5.86Z"/><path class="cls-1" d="M119.28,152.57c0,1.74,0,3.49,0,5.24a2.42,2.42,0,0,1-2.38,2.66,2.32,2.32,0,0,1-2.46-2.43,65.11,65.11,0,0,1,.28-11.68c.18-1.27,1.19-1.62,2.29-1.58a2.09,2.09,0,0,1,2.23,2.09c.1,1.89,0,3.8,0,5.7Z"/><path class="cls-1" d="M233.69,272.28a2.09,2.09,0,0,1-1.3,2c-3.35,1.67-6.86,3-10.18,4.73-1.21.64-2.17-.09-2.87-1.11a2,2,0,0,1,.33-2.77,9.77,9.77,0,0,1,2.91-1.69c2.57-1.17,5.1-2.43,7.71-3.49A2.33,2.33,0,0,1,233.69,272.28Z"/><path class="cls-1" d="M269.21,323.53c1,.39,2.09.79,3.16,1.28,2.42,1.12,4.83,2.28,7.24,3.41,1.75.83,2.41,2,1.86,3.36s-2.07,1.85-3.71,1.13c-3.19-1.4-6.35-2.9-9.49-4.42a2.64,2.64,0,0,1-1.38-3C267.06,324.13,268.1,323.87,269.21,323.53Z"/><path class="cls-1" d="M119.28,196.76v4.63a4.7,4.7,0,0,1-.33,2,2.43,2.43,0,0,1-2.26,1.6c-1,0-1.55-.72-2-1.52a2.78,2.78,0,0,1-.32-1.18c0-3.65-.3-7.31.2-10.95a2.07,2.07,0,0,1,2.39-2,2.16,2.16,0,0,1,2.25,2.24c.07,1.74,0,3.5,0,5.25Z"/><path class="cls-1" d="M76.58,84.51a2.41,2.41,0,0,1-1.47,2.31c-3.24,1.47-6.44,3-9.67,4.48A2.67,2.67,0,0,1,62,90.16a2.64,2.64,0,0,1,1.47-3.34c3.22-1.5,6.44-3,9.71-4.36A2.3,2.3,0,0,1,76.58,84.51Z"/><path class="cls-1" d="M119.28,174.59c0,1.69,0,3.39,0,5.08s-1,3.05-2.39,3.07-2.52-1.32-2.51-3.13a75.41,75.41,0,0,1,.27-10.3c.23-1.63.94-2.34,2.48-2.29,1.3,0,2.11.93,2.15,2.49S119.28,172.9,119.28,174.59Z"/><path class="cls-1" d="M132.83,318.6a2.7,2.7,0,0,1-1.49,2.31c-3.31,1.52-6.63,3-10,4.5a2.31,2.31,0,0,1-3-1.11,2.12,2.12,0,0,1,.92-3c3.44-1.74,6.91-3.42,10.42-5C131.05,315.64,132.88,317.09,132.83,318.6Z"/><path class="cls-1" d="M386.08,117.5c1.5.62,3.23,1.27,4.89,2a36.13,36.13,0,0,0,4.62,2.09,4.6,4.6,0,0,1,1.34.73c1,.74,1.77,1.67,1.25,3a2.65,2.65,0,0,1-3.42,1.27q-5-2.19-9.91-4.57a2.37,2.37,0,0,1-1.36-2.84C383.78,118.08,384.73,117.67,386.08,117.5Z"/><path class="cls-1" d="M337.6,96.54c0,2.17-1.56,3-3.71,2.09s-4.2-1.93-6.3-2.9c-1.12-.51-2.25-1-3.36-1.54a2.15,2.15,0,0,1-1.18-3,2.19,2.19,0,0,1,2.86-1.41,20,20,0,0,1,3.7,1.49,66.33,66.33,0,0,0,6.31,2.87A2.19,2.19,0,0,1,337.6,96.54Z"/><path class="cls-1" d="M7.94,140.5a2.77,2.77,0,0,1-1.87,2.57,2.19,2.19,0,0,1-2.73-1.19A30.46,30.46,0,0,1,0,130.59a2.75,2.75,0,0,1,2.42-2.74,2,2,0,0,1,2.31,2,25.2,25.2,0,0,0,3,9.94A3.29,3.29,0,0,1,7.94,140.5Z"/><path class="cls-1" d="M140.77,316.33a2.22,2.22,0,0,1-2.44-1.63,2.08,2.08,0,0,1,.88-2.69c1.3-.72,2.65-1.36,4-2,2-.94,4-1.83,6-2.75,1.56-.71,2.93-.33,3.53,1a2.6,2.6,0,0,1-1.57,3.38c-3.12,1.45-6.23,2.92-9.35,4.36A5.7,5.7,0,0,1,140.77,316.33Z"/><path class="cls-1" d="M378.08,115.15a2.3,2.3,0,0,1-2.48,2.35,7.23,7.23,0,0,1-2.73-1c-2.14-1-4.31-1.93-6.46-2.9a12.35,12.35,0,0,1-2-1.11,2.31,2.31,0,0,1,2.23-4.05c1.62.64,3.23,1.32,4.81,2.05,1.77.81,3.5,1.7,5.24,2.57A2.39,2.39,0,0,1,378.08,115.15Z"/><path class="cls-1" d="M53.86,91.57a2.27,2.27,0,0,1,2.53,1.67,2.39,2.39,0,0,1-1.51,2.89c-2,1-4.11,1.88-6.16,2.82-1.17.53-2.31,1.14-3.5,1.61a2.59,2.59,0,0,1-3.35-1c-.58-1.29-.09-2.39,1.36-3.25,2.92-1.75,6.22-2.69,9.22-4.3A5.73,5.73,0,0,1,53.86,91.57Z"/><path class="cls-1" d="M390.89,205.68c1.63,0,2.64,1.47,2.23,3.29a27.93,27.93,0,0,1-1.94,4.54c-.82,1.93-1.73,3.84-2.71,5.7a2.24,2.24,0,0,1-3.15,1,2.35,2.35,0,0,1-1-3.17q2.16-4.87,4.39-9.71A2.44,2.44,0,0,1,390.89,205.68Z"/><path class="cls-1" d="M132.54,240.58a19.56,19.56,0,0,1-10.29-4.91,2.39,2.39,0,0,1-.39-3.22,2.62,2.62,0,0,1,3.38-.46,20.1,20.1,0,0,0,8.89,4,2.6,2.6,0,0,1,2,2.71C135.92,239.87,134.62,240.64,132.54,240.58Z"/><path class="cls-1" d="M28.79,189a2.25,2.25,0,0,1,2.1,1.32A56.88,56.88,0,0,1,33.63,196c.51,1.06.89,2.18,1.49,3.21a5,5,0,0,1,.61,1.88,2.21,2.21,0,0,1-1.55,2.54,2,2,0,0,1-2.73-1.07c-1.67-3.46-3.3-6.94-4.93-10.42a2.15,2.15,0,0,1,.24-1.78A2.08,2.08,0,0,1,28.79,189Z"/><path class="cls-1" d="M45.06,221.64a2.11,2.11,0,0,1-1.65,2.13,2.14,2.14,0,0,1-2.77-1.06c-1.61-3.39-3.2-6.78-4.74-10.2a2.34,2.34,0,0,1,1.31-3.19,2.57,2.57,0,0,1,3.22,1.39c.73,1.47,1.34,3,2,4.5s1.36,2.89,2,4.32A5,5,0,0,1,45.06,221.64Z"/><path class="cls-1" d="M45.08,232c0-1.32.45-2.29,1.65-2.65a2.2,2.2,0,0,1,2.61,1.18c.79,1.32,1.46,2.72,2.12,4.11.86,1.82,1.53,3.71,2.47,5.5s.17,3.68-1.63,4a2.33,2.33,0,0,1-2.58-1.53c-.77-1.57-1.48-3.17-2.16-4.78a25.75,25.75,0,0,0-1.87-3.89A3.16,3.16,0,0,1,45.08,232Z"/><path class="cls-1" d="M23.88,110.09a2.33,2.33,0,0,1-2.31-1.74,2,2,0,0,1,1.07-2.6c3.43-1.63,6.88-3.23,10.36-4.76a2.5,2.5,0,0,1,3.12,1.33,1.88,1.88,0,0,1-.88,2.75c-3.52,1.79-7.09,3.5-10.77,5A2.44,2.44,0,0,1,23.88,110.09Z"/><path class="cls-1" d="M201.23,288.21c-1.13,0-2.07-.33-2.35-1.55a2.34,2.34,0,0,1,1.27-2.86c3.37-1.52,6.73-3,10.06-4.65a2.22,2.22,0,0,1,3,1.08,2.1,2.1,0,0,1-.57,2.88,13.09,13.09,0,0,1-3.51,1.89c-1.87.84-3.71,1.75-5.56,2.62A5.17,5.17,0,0,1,201.23,288.21Z"/><path class="cls-1" d="M384,228.69a5.11,5.11,0,0,1-.31,1.24c-1.45,3.07-2.9,6.14-4.42,9.17a2.43,2.43,0,0,1-3.18,1.35,2.49,2.49,0,0,1-1-3.33c1.14-2.64,2.38-5.24,3.56-7.86.28-.61.43-1.28.76-1.85a2.55,2.55,0,0,1,2.81-1.44C383.37,226.21,384,227,384,228.69Z"/><path class="cls-1" d="M372.34,246.17c1.91,0,3,1.67,2.15,3.57-1.49,3.32-3.09,6.6-4.69,9.87a2.17,2.17,0,0,1-2.72,1.2,2.13,2.13,0,0,1-1.62-2.47c.17-1.79,1.25-3.24,2-4.82.87-2,1.88-3.87,2.67-5.87A2.11,2.11,0,0,1,372.34,246.17Z"/><path class="cls-1" d="M417.08,144.75a2.45,2.45,0,0,1,2.67,2.75,29,29,0,0,1-3.35,11.16,2.42,2.42,0,0,1-3.2,1,2.23,2.23,0,0,1-1-3,30.15,30.15,0,0,0,2.85-10.2A1.78,1.78,0,0,1,417.08,144.75Z"/><path class="cls-1" d="M104.21,330.9a18.44,18.44,0,0,1-5.17-.52,2.71,2.71,0,0,1-2.22-2.73c.21-1.45,1.3-1.84,2.56-2a1.19,1.19,0,0,1,.46,0,22.2,22.2,0,0,0,10.22-.25,1.94,1.94,0,0,1,2.3,1.61,2.08,2.08,0,0,1-.93,2.66C109.27,330.91,106.91,330.91,104.21,330.9Z"/><path class="cls-1" d="M409.53,165.46c2,0,3,1.44,2.24,3.15q-2.14,4.86-4.39,9.69c-.79,1.71-2,2.24-3.29,1.61a2.62,2.62,0,0,1-1-3.68q2-4.48,4-9C407.59,166.17,408.31,165.35,409.53,165.46Z"/><path class="cls-1" d="M72.89,282.08a2.21,2.21,0,0,1-1.68,2.27,2,2,0,0,1-2.46-.74,19.51,19.51,0,0,1-1.42-2.72c-1.13-2.64-2.55-5.15-3.45-7.89-.41-1.22-.39-2.34,1-3a2.23,2.23,0,0,1,3.25,1.09c1.64,3.36,3.11,6.8,4.64,10.21A2.8,2.8,0,0,1,72.89,282.08Z"/><path class="cls-1" d="M125.88,7.75c-1.16,0-2.11-.25-2.43-1.29a2.7,2.7,0,0,1,1.24-3.21,20.85,20.85,0,0,1,6.24-2.6A15.87,15.87,0,0,1,136.11,0a2.23,2.23,0,0,1,2.31,2.37,2,2,0,0,1-2,2.25,20.67,20.67,0,0,0-9.21,2.74A4,4,0,0,1,125.88,7.75Z"/><path class="cls-1" d="M114.34,216.75a16,16,0,0,1,.27-3.38,2.1,2.1,0,0,1,2.43-1.84,2.18,2.18,0,0,1,2.21,2.12,4.82,4.82,0,0,1,0,.93,40.57,40.57,0,0,0,.67,9.52,2.24,2.24,0,0,1-1.64,2.85,2.46,2.46,0,0,1-3-1.94A40.23,40.23,0,0,1,114.34,216.75Z"/><path class="cls-1" d="M315.48,347.83c-2-.31-4.15-.17-6.16-.91-1.77-.65-2.36-1.7-1.77-3.29a1.89,1.89,0,0,1,2.39-1.39,20.93,20.93,0,0,0,9.89.18,2.35,2.35,0,0,1,3.14,1.89,2.79,2.79,0,0,1-2.7,3Z"/><path class="cls-1" d="M229.32,305.24a2.85,2.85,0,0,1,.94.25c2.84,1.67,6.07,2.48,9,4.05.69.38,1.36.73,1.62,1.54a2.31,2.31,0,0,1-2.85,3.23c-1.43-.56-2.84-1.19-4.23-1.83-1.91-.88-3.8-1.81-5.7-2.7a2.4,2.4,0,0,1-1.59-2.83C226.75,305.66,227.82,305.24,229.32,305.24Z"/><path class="cls-1" d="M92.06,322.1A1.9,1.9,0,0,1,91,324.2a2.51,2.51,0,0,1-2.74-.43A13.56,13.56,0,0,1,85.53,320c-1.1-2-2.09-4.13-3-6.24a2.39,2.39,0,0,1,1.09-3.42A2.56,2.56,0,0,1,87,311.88a39.32,39.32,0,0,0,4.5,8.41A2.82,2.82,0,0,1,92.06,322.1Z"/><path class="cls-1" d="M5.66,121.84a2.18,2.18,0,0,1-2.25-1.16,2.17,2.17,0,0,1,.1-2.46,22.06,22.06,0,0,1,8.62-7.7c2.21-1.08,3.93-.12,3.87,2.08a1.92,1.92,0,0,1-.94,1.65c-1.33.87-2.66,1.73-4,2.64a13.91,13.91,0,0,0-3.45,3.88A2,2,0,0,1,5.66,121.84Z"/><path class="cls-1" d="M289.48,333.09c1.31-.09,2.25.76,3.31,1.24a80.32,80.32,0,0,1,7.53,3.5,2.36,2.36,0,1,1-2.05,4.26c-3.09-1.39-6.16-2.83-9.24-4.26a7.29,7.29,0,0,1-.92-.56,2.15,2.15,0,0,1-1-2.66A2.09,2.09,0,0,1,289.48,333.09Z"/><path class="cls-1" d="M82.17,302.47c0,1-.28,1.84-1.42,2.07a2.57,2.57,0,0,1-3.09-1.43c-1-2-1.89-4-2.81-6-.56-1.21-1.1-2.42-1.62-3.65-.6-1.46-.21-2.78,1-3.32a2.58,2.58,0,0,1,3.4,1.45q2.1,4.45,4.17,8.92A4.19,4.19,0,0,1,82.17,302.47Z"/><path class="cls-1" d="M209.09,295.87A34.17,34.17,0,0,1,214,298c1.73.78,3.41,1.68,5.13,2.49s2.21,1.91,1.62,3.29a2.37,2.37,0,0,1-3.39,1.07q-4.78-2.12-9.51-4.39a2.38,2.38,0,0,1-1.52-2.87C206.66,296.43,207.41,295.79,209.09,295.87Z"/><path class="cls-1" d="M414.08,138.56a2.12,2.12,0,0,1-2-.95,20.57,20.57,0,0,0-7-6.38,2.29,2.29,0,0,1-1-3.25,2.59,2.59,0,0,1,3.42-.81A23,23,0,0,1,416.2,135a2.52,2.52,0,0,1,.06,2.75C415.87,138.6,415,138.55,414.08,138.56Z"/><path class="cls-1" d="M17.2,171.2a2.24,2.24,0,0,1,1.46-2.33,2.1,2.1,0,0,1,2.59.77,14,14,0,0,1,1.8,3.56c1,2.23,2.14,4.44,3.16,6.68a2.32,2.32,0,0,1-1,3.29A2.45,2.45,0,0,1,21.92,182c-1.54-3.19-3-6.41-4.48-9.63A5.13,5.13,0,0,1,17.2,171.2Z"/><path class="cls-1" d="M345.65,99c1.36.1,2.6,1,4,1.57,2,.83,3.92,1.79,5.87,2.69.09.05.19.07.29.12,1.84.82,2.66,2.27,2,3.57s-2.14,1.66-4,.78q-4.18-2-8.4-3.83a4.91,4.91,0,0,1-1.53-1A2.28,2.28,0,0,1,345.65,99Z"/><path class="cls-1" d="M56.87,249.59c1.16-.07,1.82.84,2.28,1.83,1.43,3.07,2.83,6.16,4.14,9.28.72,1.73.24,2.92-1.16,3.48s-2.52-.16-3.25-1.78c-1.4-3.1-2.83-6.18-4.2-9.28A2.34,2.34,0,0,1,56.87,249.59Z"/><path class="cls-1" d="M96.91,75.27a2.32,2.32,0,0,1-1.29,2.06C92.23,79,88.83,80.55,85.4,82.08a2.43,2.43,0,0,1-3-1.15,2.39,2.39,0,0,1,1-3.2c3.37-1.42,6.54-3.3,10-4.48,1.93-.65,3-.12,3.4,1.48C96.85,74.93,96.88,75.13,96.91,75.27Z"/><path class="cls-1" d="M249,314.51c1.62.15,3,1.07,4.45,1.66,2.2.87,4.3,2,6.43,3a2.52,2.52,0,0,1,1.37,3.21,2.44,2.44,0,0,1-3.31,1.1q-4.86-2.16-9.67-4.43a2.41,2.41,0,0,1-1.47-3A1.89,1.89,0,0,1,249,314.51Z"/><path class="cls-1" d="M114.35,23.23c.29-3,.35-6.26,1.63-9.37.7-1.71,1.7-2.58,3-2.29A2.42,2.42,0,0,1,120.6,15a22,22,0,0,0-1.34,8.61c.08,2.44-.7,3.5-2.27,3.52S114.34,25.78,114.35,23.23Z"/><path class="cls-1" d="M337.61,318.63a3.93,3.93,0,0,1,.24-1c1.49-3.16,3-6.31,4.54-9.44a2.45,2.45,0,0,1,3.32-1.27,2.58,2.58,0,0,1,1,3.13q-2.29,5.06-4.75,10a2.15,2.15,0,0,1-2.7,1.25C338,321,337.63,320,337.61,318.63Z"/><path class="cls-1" d="M17,160.81c0,1.06-.21,2-1.34,2.36a2.32,2.32,0,0,1-2.7-1c-1.35-1.73-1.89-3.87-2.9-5.78-.76-1.45-1.37-3-2-4.5a2.38,2.38,0,0,1,1.23-3.1,2,2,0,0,1,2.9.89c1.63,3.27,3.13,6.59,4.65,9.91A4,4,0,0,1,17,160.81Z"/><path class="cls-1" d="M173.06,300.22a1.74,1.74,0,0,1-1,1.69,105,105,0,0,1-10.31,4.81,2.38,2.38,0,0,1-3.21-1.29,2.2,2.2,0,0,1,1.32-2.92c3.22-1.57,6.45-3.15,9.76-4.54C171.67,297.09,173.05,298.08,173.06,300.22Z"/><path class="cls-1" d="M329.82,341.09a2.1,2.1,0,0,1-2.05-1.19,1.91,1.91,0,0,1,.23-2.29,51.12,51.12,0,0,0,4.9-8.87c.79-1.62,1.76-2.18,3.12-1.67s2,1.7,1.21,3.4c-1.52,3.35-2.7,6.9-5.31,9.65A2.26,2.26,0,0,1,329.82,341.09Z"/><path class="cls-1" d="M310.08,16a2.17,2.17,0,0,1-1.93,2.44,2.08,2.08,0,0,1-2.49-1.61c-1-3.26-3.07-5.77-5.35-8.17a2.34,2.34,0,0,1-.37-3.1,2.16,2.16,0,0,1,2.78-.65C305.49,6,310,12.79,310.08,16Z"/><path class="cls-1" d="M402.55,187.93c-.12,1.87-1.31,3.32-2,5-.82,1.94-1.78,3.82-2.66,5.73-.7,1.51-1.8,2-3.24,1.4a2.32,2.32,0,0,1-1.12-3.13c1.1-2.55,2.34-5,3.51-7.56.35-.75.64-1.52,1-2.26a2.47,2.47,0,0,1,2.93-1.45C402.21,185.86,402.57,186.77,402.55,187.93Z"/><path class="cls-1" d="M291.36,4.94c-3.53-.54-7.09-.15-10.63-.29-1.49-.06-2.35-.82-2.42-2.06A2.3,2.3,0,0,1,280.66.07q5.47-.11,10.95,0A2.28,2.28,0,0,1,294,2.7,2.4,2.4,0,0,1,291.36,4.94Z"/><path class="cls-1" d="M311,55.08c0,1.74,0,3.49,0,5.23s-.66,2.37-2.09,2.46a2.28,2.28,0,0,1-2.49-2.35c-.1-1.53,0-3.08-.05-4.62,0-2,0-4.1,0-6.16a2.33,2.33,0,0,1,2.4-2.6c1.48,0,2.17.71,2.21,2.49S311,53.23,311,55.08Z"/><path class="cls-1" d="M175.08,4.66c-1.8,0-3.6,0-5.4,0s-2.43-.7-2.45-2.11A2.21,2.21,0,0,1,169.71,0Q174.95,0,180.2,0c1.86,0,2.78.88,2.76,2.41,0,1.34-1.06,2.18-2.79,2.2S176.77,4.66,175.08,4.66Z"/><path class="cls-1" d="M311,99.35c0,1.8,0,3.6,0,5.4a2.3,2.3,0,1,1-4.59.11c-.06-3.7-.06-7.41,0-11.11,0-1.51.87-2.19,2.4-2.19s2.11.68,2.17,2.23c.06,1.85,0,3.71,0,5.56Z"/><path class="cls-1" d="M219.63,4.65c-1.79,0-3.59,0-5.39,0s-2.61-.84-2.63-2.36c0-1.3.81-2.16,2.45-2.2,3.7-.08,7.4-.07,11.1,0a2.4,2.4,0,0,1,2.27,2.46A2.28,2.28,0,0,1,225,4.64C223.23,4.68,221.43,4.65,219.63,4.65Z"/><path class="cls-1" d="M152.84,4.65c-1.79,0-3.59,0-5.39,0A2.21,2.21,0,0,1,145,2.32,2.21,2.21,0,0,1,147.49,0c3.49,0,7,0,10.47,0,1.82,0,2.72.82,2.74,2.24s-1,2.35-2.77,2.37S154.54,4.66,152.84,4.65Z"/><path class="cls-1" d="M263.92,4.65c-1.8,0-3.6,0-5.4,0a2.3,2.3,0,0,1-2.47-2.19A2.26,2.26,0,0,1,258.37.07c3.75-.06,7.5-.07,11.25,0,1.47,0,2.15.93,2.11,2.47s-.69,2.07-2.26,2.11C267.62,4.68,265.77,4.65,263.92,4.65Z"/><path class="cls-1" d="M241.59,4.65c-1.8,0-3.6,0-5.4,0a2.14,2.14,0,0,1-2.31-2.31,2.09,2.09,0,0,1,2.2-2.26q5.63-.11,11.25,0c1.56,0,2.18.84,2.14,2.4s-.65,2.15-2.19,2.18C245.39,4.69,243.49,4.65,241.59,4.65Z"/><path class="cls-1" d="M311,32.91c0,1.75,0,3.5,0,5.25,0,1.53-.72,2.28-2.06,2.34a2.32,2.32,0,0,1-2.51-2.2c-.11-1.64-.05-3.29-.06-4.93,0-2,0-3.91,0-5.86,0-1.63.85-2.66,2.12-2.71,1.45-.06,2.45,1,2.49,2.71S311,31.11,311,32.91Z"/><path class="cls-1" d="M197.33,4.65c-1.8,0-3.6,0-5.4,0a2.18,2.18,0,0,1-2.43-2.22A2.13,2.13,0,0,1,191.81.08c3.7-.07,7.41-.08,11.12,0a2,2,0,0,1,2.15,2.27,2.15,2.15,0,0,1-2.34,2.29C200.94,4.68,199.13,4.65,197.33,4.65Z"/><path class="cls-1" d="M365,270.36a24.08,24.08,0,0,1-3.32-3.74,2.17,2.17,0,0,1,3,.23C365.89,267.82,365.52,269.14,365,270.36Z"/><path class="cls-3" d="M276.06,109.19c9.67.28,18.51,1.45,27,4.45,1.36.47,2.74.9,4.06,1.45,1.52.64,2,1.6,1.54,2.71-.63,1.36-1.77,1-2.8.63a91.35,91.35,0,0,0-9.57-3,69.63,69.63,0,0,0-16-2.27,83.1,83.1,0,0,0-18.89,1.49A77.85,77.85,0,0,0,242,121.18c-9,4.66-17.28,10.38-23.89,18.23-1,1.22-2.12,2.39-3.17,3.58a1.88,1.88,0,0,1-2.62.5c-.94-.64-.72-1.67-.22-2.49a37.42,37.42,0,0,1,5.24-6.26,79.33,79.33,0,0,1,18.85-14.6,86.45,86.45,0,0,1,23.55-9A134.08,134.08,0,0,1,276.06,109.19Z"/><path class="cls-3" d="M200.15,162.05a16.38,16.38,0,0,1,1.78-4.75c1.27-2.84,2.9-5.52,4.39-8.26a1.84,1.84,0,0,1,2.29-1.09,1.73,1.73,0,0,1,.95,2.64c-2.1,4-4.13,8-6,12.1a1.82,1.82,0,0,1-2.14,1.11C200.46,163.6,200.29,162.82,200.15,162.05Z"/><path class="cls-3" d="M402.43,326.06a2.44,2.44,0,0,1-1.49,2,2.1,2.1,0,0,1-2.64-.63q-3.84-4.32-7.64-8.69-10.46-12.07-20.89-24.18-6.6-7.65-13.19-15.32c-1.26-1.48-1.25-2.81-.08-3.78s2.58-.61,3.77.77q12.48,14.42,24.94,28.84l16.27,18.78A3,3,0,0,1,402.43,326.06Z"/></g></g></svg>