<svg xmlns="http://www.w3.org/2000/svg" viewBox="0 0 586.93 591.4"><defs><style>.cls-1,.cls-3,.cls-6{fill:none;}.cls-1{stroke:#29abe2;stroke-dasharray:9.9 9.9;}.cls-1,.cls-3{stroke-miterlimit:10;stroke-width:3px;}.cls-2{opacity:0.68;}.cls-3{stroke:#f15a24;stroke-dasharray:9.97 9.97;}.cls-4{fill:#f2f2f0;}.cls-5{fill:#e1dfda;}.cls-7{fill:#9b9993;}.cls-8{fill:#5f5d59;}.cls-9{fill:#fff;opacity:0.71;}.cls-10{fill:#ed560a;}</style></defs><g id="Layer_2" data-name="Layer 2"><g id="OBJECTS"><circle class="cls-1" cx="111.8" cy="402.4" r="110.3"/><g class="cls-2"><circle class="cls-3" cx="372.76" cy="214.18" r="212.68"/></g><polygon class="cls-4" points="267.92 347.08 268.62 347.08 267.92 346.16 267.92 347.08"/><polygon class="cls-5" points="404.27 347.47 404.57 347.08 403.98 347.08 404.27 347.47"/><polygon class="cls-5" points="358.66 347.47 358.95 347.08 358.37 347.08 358.66 347.47"/><polygon class="cls-5" points="449.88 347.47 450.18 347.08 449.59 347.08 449.88 347.47"/><polygon class="cls-5" points="268.91 347.47 269.21 347.08 268.62 347.08 268.91 347.47"/><polygon class="cls-5" points="314.02 347.47 314.32 347.08 313.73 347.08 314.02 347.47"/><polygon class="cls-5" points="329.38 93.74 329.13 93.74 329.13 180.29 415.68 180.29 415.68 180.04 329.38 93.74"/><path class="cls-4" d="M411.07,180.29H333.74a4.6,4.6,0,0,1-4.61-4.61V98.35a4.61,4.61,0,0,0-4.62-4.61H146.08a4.6,4.6,0,0,0-4.61,4.61V457.1a1.19,1.19,0,0,0,1.86,1,3.32,3.32,0,0,0,.68-.67l18.64-24.35a1.22,1.22,0,0,1,.95-.47h.66a1.22,1.22,0,0,1,1,.47l17.45,22.8a4.63,4.63,0,0,0,7.35,0l17.45-22.8a1.22,1.22,0,0,1,.95-.47h.66a1.22,1.22,0,0,1,1,.47L228,456.52a4.63,4.63,0,0,0,7.35,0l17.94-23.44a1.22,1.22,0,0,1,.95-.47h.65a1.19,1.19,0,0,1,1,.47l17.95,23.44a4.63,4.63,0,0,0,7.35,0L299,433.08a1.22,1.22,0,0,1,.95-.47h.65a1.21,1.21,0,0,1,.95.47L320,457.16a4.63,4.63,0,0,0,7.35,0l18.43-24.08a1.22,1.22,0,0,1,.95-.47h1.19a1.22,1.22,0,0,1,.95.47l17.69,23.11a4.63,4.63,0,0,0,7.35,0l17.69-23.11a1.22,1.22,0,0,1,.95-.47h.65a1.21,1.21,0,0,1,.95.47l18.41,24a3.22,3.22,0,0,0,1.53,1.12,1.19,1.19,0,0,0,1.57-1.14V184.91A4.62,4.62,0,0,0,411.07,180.29Z"/><circle class="cls-6" cx="170.38" cy="445.04" r="58.58" transform="translate(-264.79 250.82) rotate(-45)"/><path class="cls-7" d="M313.47,572.36l-88.29-88.29a67.27,67.27,0,0,0-102.37-86.6,68.21,68.21,0,0,0-7.24,8.54,67.29,67.29,0,0,0,93.83,93.84l88.3,88.29a11.15,11.15,0,1,0,15.77-15.78ZM129,486.46a58.58,58.58,0,1,1,82.85,0A58.58,58.58,0,0,1,129,486.46Z"/><path class="cls-8" d="M225.17,484.06l10,10a9.72,9.72,0,0,1,0,13.74l-2,2a9.72,9.72,0,0,1-13.74,0l-10-10a69,69,0,0,0,8.54-7.23A67.5,67.5,0,0,0,225.17,484.06Z"/><path class="cls-9" d="M216.84,480.72c-19.71,25.66-58,32.33-82.14,10.78-24.31-21.72,14.9,8.43,41.84-6.91,15.55-7.66,34.27-34.55,29.51-86C217.28,414,236.54,455.06,216.84,480.72Z"/><path class="cls-10" d="M222.45,328.57v-26H193V290.29l22.37-66.14h22.2V289h7.82l-1.22,13.52h-6.6v26Zm0-58.1c0-10.44.45-21,.63-31.46h-.17c-4.52,17.13-9.13,32.94-14.28,50h13.82Z"/><path class="cls-10" d="M302.75,250.63v50.1c0,15.82-4.75,29.12-25.09,29.12-18.81,0-23.93-13.12-23.93-28.94V251.78c0-18.11,7.8-28.92,24.83-28.92C295.28,222.86,302.75,233.38,302.75,250.63ZM270,249.8v53c0,7.8,2.34,12,8.24,12s8.06-4.39,8.06-12.49v-53c0-7.22-2.26-11.53-8.08-11.53C272.69,237.86,270,241.67,270,249.8Z"/><path class="cls-10" d="M341.17,328.57v-26H311.73V290.29l22.37-66.14h22.2V289h7.83l-1.23,13.52h-6.6v26Zm0-58.1c0-10.44.44-21,.62-31.46h-.16c-4.52,17.13-9.13,32.94-14.28,50h13.82Z"/></g></g></svg>